HIERARCHY
ROOT Hips
{
	OFFSET 0.00000 0.00000 0.00000
	CHANNELS 6 Xposition Yposition Zposition Zrotation Yrotation Xrotation 
	JOINT LHipJoint
	{
		OFFSET 0 0 0
		CHANNELS 3 Zrotation Yrotation Xrotation
		JOINT LeftUpLeg
		{
			OFFSET 3.13874 -1.57224 1.49786
			CHANNELS 3 Zrotation Yrotation Xrotation
			JOINT LeftLeg
			{
				OFFSET 2.10955 -5.79594 0.00000
				CHANNELS 3 Zrotation Yrotation Xrotation
				JOINT LeftFoot
				{
					OFFSET 2.41843 -6.64458 0.00000
					CHANNELS 3 Zrotation Yrotation Xrotation
					JOINT LeftToeBase
					{
						OFFSET 0.04713 -0.12948 1.66229
						CHANNELS 3 Zrotation Yrotation Xrotation
						End Site
						{
							OFFSET 0.00000 -0.00000 0.85167
						}
					}
				}
			}
		}
	}
	JOINT RHipJoint
	{
		OFFSET 0 0 0
		CHANNELS 3 Zrotation Yrotation Xrotation
		JOINT RightUpLeg
		{
			OFFSET -3.13988 -1.57224 1.49786
			CHANNELS 3 Zrotation Yrotation Xrotation
			JOINT RightLeg
			{
				OFFSET -2.15006 -5.90725 0.00000
				CHANNELS 3 Zrotation Yrotation Xrotation
				JOINT RightFoot
				{
					OFFSET -2.34496 -6.44273 0.00000
					CHANNELS 3 Zrotation Yrotation Xrotation
					JOINT RightToeBase
					{
						OFFSET -0.08699 -0.23900 1.55223
						CHANNELS 3 Zrotation Yrotation Xrotation
						End Site
						{
							OFFSET -0.00000 -0.00000 0.80281
						}
					}
				}
			}
		}
	}
	JOINT LowerBack
	{
		OFFSET 0 0 0
		CHANNELS 3 Zrotation Yrotation Xrotation
		JOINT Spine
		{
			OFFSET 0.01292 1.96517 -0.16495
			CHANNELS 3 Zrotation Yrotation Xrotation
			JOINT Spine1
			{
				OFFSET 0.02122 1.88666 0.19706
				CHANNELS 3 Zrotation Yrotation Xrotation
				JOINT Neck
				{
					OFFSET 0 0 0
					CHANNELS 3 Zrotation Yrotation Xrotation
					JOINT Neck1
					{
						OFFSET -0.01683 1.81591 0.07903
						CHANNELS 3 Zrotation Yrotation Xrotation
						JOINT Head
						{
							OFFSET 0.00815 1.74013 -0.47700
							CHANNELS 3 Zrotation Yrotation Xrotation
							End Site
							{
								OFFSET -0.00204 1.83225 -0.16933
							}
						}
					}
				}
				JOINT LeftShoulder
				{
					OFFSET 0 0 0
					CHANNELS 3 Zrotation Yrotation Xrotation
					JOINT LeftArm
					{
						OFFSET 3.38482 1.41533 0.19802
						CHANNELS 3 Zrotation Yrotation Xrotation
						JOINT LeftForeArm
						{
							OFFSET 4.32712 -0.00000 0.00000
							CHANNELS 3 Zrotation Yrotation Xrotation
							JOINT LeftHand
							{
								OFFSET 3.28587 -0.00000 -0.00000
								CHANNELS 3 Zrotation Yrotation Xrotation
								JOINT LeftFingerBase
								{
									OFFSET 0 0 0
									CHANNELS 3 Zrotation Yrotation Xrotation
									JOINT LeftHandIndex1
									{
										OFFSET 0.43316 -0.00000 -0.00000
										CHANNELS 3 Zrotation Yrotation Xrotation
										End Site
										{
											OFFSET 0.34922 -0.00000 -0.00000
										}
									}
								}
								JOINT LThumb
								{
									OFFSET 0 0 0
									CHANNELS 3 Zrotation Yrotation Xrotation
									End Site
									{
										OFFSET 0.35456 -0.00000 0.35456
									}
								}
							}
						}
					}
				}
				JOINT RightShoulder
				{
					OFFSET 0 0 0
					CHANNELS 3 Zrotation Yrotation Xrotation
					JOINT RightArm
					{
						OFFSET -3.09725 1.62858 -0.14144
						CHANNELS 3 Zrotation Yrotation Xrotation
						JOINT RightForeArm
						{
							OFFSET -4.29104 -0.00000 0.00000
							CHANNELS 3 Zrotation Yrotation Xrotation
							JOINT RightHand
							{
								OFFSET -3.22720 -0.00000 -0.00000
								CHANNELS 3 Zrotation Yrotation Xrotation
								JOINT RightFingerBase
								{
									OFFSET 0 0 0
									CHANNELS 3 Zrotation Yrotation Xrotation
									JOINT RightHandIndex1
									{
										OFFSET -0.54362 -0.00000 -0.00000
										CHANNELS 3 Zrotation Yrotation Xrotation
										End Site
										{
											OFFSET -0.43828 -0.00000 -0.00000
										}
									}
								}
								JOINT RThumb
								{
									OFFSET 0 0 0
									CHANNELS 3 Zrotation Yrotation Xrotation
									End Site
									{
										OFFSET -0.44497 -0.00000 0.44497
									}
								}
							}
						}
					}
				}
			}
		}
	}
}
MOTION
Frames: 5
Frame Time: .0083333
-38.0175 16.2921 5.3968 0 0 0 0 0 0 -21 0 0 0 0 0 0 0 0 0 0 0 0 0 0 21 0 0 0 0 0 0 0 0 0 0 0 0 0 0 0 0 0 0 0 0 0 0 -16 0 0 21 0 0 11 0 0 0 -8 0 0 0 0 0 0 0 0 0 0 0 0 0 0 0 0 0 0 0 0 8 0 0 0 0 0 0 0 0 0 0 0 0 0 0 0 0 0
-38.0175 16.2921 5.3968 -106.9870 86.6718 -94.5136 0.0000 0.0000 0.0000 -27.1448 -30.9861 7.5496 0.0325 -1.1629 -3.1972 2.9518 -12.4037 -31.0391 0.2989 -3.5154 -9.7170 0.0000 0.0000 0.0000 37.8705 22.2894 11.0330 -0.5613 4.7987 -13.3352 3.5070 -30.9921 -14.1105 -5.1876 13.5920 -41.6270 5.8510 2.7512 4.6928 -1.5656 4.5262 -9.5663 -5.6885 1.6354 -12.4713 11.0244 6.7499 -15.9590 -4.0925 11.5438 42.5312 -1.1737 6.5919 20.4271 0.0000 0.0000 0.0000 -76.1680 16.2338 27.0385 19.3076 -29.7990 -5.1828 -0.0000 -0.0000 3.1116 29.2839 30.7561 16.0022 -7.1250 0.0000 -0.0000 -2.6886 64.2652 -1.2549 0.0000 0.0000 0.0000 78.2563 -12.3009 46.4401 -18.7558 29.1141 -4.9114 0.0000 -0.0000 -5.4932 -20.7990 -21.3020 7.8567 7.1250 -0.0000 -0.0000 8.1236 -52.4410 -1.4958
-38.0186 16.2926 5.4064 -109.0070 86.5250 -96.4899 0.0000 0.0000 0.0000 -26.8498 -30.8380 7.2974 0.0318 -1.1515 -3.1657 2.8948 -12.1627 -30.7223 0.3285 -3.6838 -10.1887 0.0000 0.0000 0.0000 37.9580 22.2327 10.8496 -0.5537 4.7666 -13.2440 3.5286 -31.0593 -13.6643 -5.3596 13.7776 -42.3539 5.8843 2.7214 4.9194 -1.4993 4.5250 -9.7020 -5.6617 1.6190 -12.7769 11.0935 6.8008 -15.9670 -4.0528 11.5828 42.5280 -1.1547 6.6239 20.4356 0.0000 -0.0000 0.0000 -76.1351 16.5496 26.5728 19.0840 -29.5229 -5.0722 -0.0000 -0.0000 2.7247 28.2289 30.0518 15.0477 -7.1250 0.0000 -0.0000 -3.6367 63.2353 -1.6105 0.0000 -0.0000 0.0000 78.1853 -12.4493 46.6056 -18.7303 29.0822 -4.8991 0.0000 -0.0000 -5.4950 -20.5348 -20.3361 7.4168 7.1250 -0.0000 -0.0000 8.0632 -51.3970 -1.2775
-38.0185 16.2922 5.4141 -111.9380 86.4120 -99.4245 0.0000 0.0000 0.0000 -26.7340 -30.8357 7.2156 0.0308 -1.1320 -3.1121 2.8474 -12.2863 -30.4717 0.3097 -3.5780 -9.8923 0.0000 0.0000 0.0000 38.0197 22.0804 10.7263 -0.5470 4.7384 -13.1639 3.5143 -31.0123 -13.9018 -5.3008 13.7147 -42.1064 5.8864 2.6820 5.1346 -1.4369 4.5019 -9.7945 -5.6147 1.5977 -13.0298 11.1491 6.8485 -16.0050 -4.0293 11.6485 42.5957 -1.1317 6.6643 20.5060 -0.0000 0.0000 0.0000 -76.1301 16.8641 26.2160 18.9277 -29.3287 -4.9954 -0.0000 -0.0000 2.5015 27.5488 29.3358 14.3363 -7.1250 0.0000 -0.0000 -4.0971 62.3032 -1.7249 -0.0000 0.0000 0.0000 78.0459 -12.5553 46.9133 -18.6861 29.0268 -4.8776 0.0000 -0.0000 -5.5836 -20.8167 -19.4549 7.2170 7.1250 -0.0000 -0.0000 7.5099 -50.5313 -1.0287
-38.0125 16.2932 5.4192 -114.0640 86.4117 -101.5450 0.0000 0.0000 0.0000 -26.7759 -30.8658 7.1800 0.0293 -1.1054 -3.0388 2.8023 -12.5251 -30.2393 0.2793 -3.3993 -9.3925 0.0000 0.0000 0.0000 37.9857 21.9644 10.6872 -0.5468 4.7373 -13.1609 3.5600 -31.1709 -13.3510 -5.4732 13.8976 -42.8288 5.8497 2.6853 5.0263 -1.4213 4.4890 -9.7131 -5.5610 1.6050 -12.8699 11.3597 6.9350 -16.0858 -4.1787 11.7201 42.4367 -1.2246 6.6934 20.4719 0.0000 -0.0000 0.0000 -76.1939 16.8461 25.9608 18.7755 -29.1388 -4.9211 -0.0000 -0.0000 2.6685 27.8446 29.4646 14.5652 -7.1250 0.0000 -0.0000 -3.8042 62.5164 -1.6205 0.0000 -0.0000 0.0000 77.9811 -12.4942 46.9418 -18.7256 29.0763 -4.8968 0.0000 -0.0000 -5.5316 -18.7563 -22.5672 7.4249 7.1250 -0.0000 -0.0000 10.6492 -53.3629 -2.2101
